<svg xmlns="http://www.w3.org/2000/svg" xmlns:xlink="http://www.w3.org/1999/xlink" width="144" height="144" viewBox="0 0 144 144">
  <defs>
    <clipPath id="clip-path">
      <rect id="長方形_3222" data-name="長方形 3222" width="144" height="144" transform="translate(-0.242 -0.242)" fill="#fff" stroke="#707070" stroke-width="1"/>
    </clipPath>
  </defs>
  <g id="マスクグループ_17" data-name="マスクグループ 17" transform="translate(0.242 0.242)" clip-path="url(#clip-path)">
    <g id="グループ_208" data-name="グループ 208" transform="translate(3.579 3.289)">
      <path id="パス_182" data-name="パス 182" d="M458.447,332.72a69.268,69.268,0,1,1,69.269-69.266A69.345,69.345,0,0,1,458.447,332.72Zm0-130.36a61.092,61.092,0,1,0,61.094,61.094A61.16,61.16,0,0,0,458.447,202.36Z" transform="translate(-389.181 -194.185)" fill="#68b9ce"/>
      <path id="パス_183" data-name="パス 183" d="M434.933,328.352a4.067,4.067,0,0,1-1.475-.278,69.279,69.279,0,0,1,24.989-133.889,4.088,4.088,0,1,1,0,8.175,61.106,61.106,0,0,0-22.04,118.091,4.088,4.088,0,0,1-1.475,7.9Z" transform="translate(-389.181 -194.185)" fill="#68b9ce"/>
      <path id="パス_184" data-name="パス 184" d="M450.535,273.823a76.7,76.7,0,0,1-23.965-3.881c-15.289-5.047-27.556-14.383-35.469-26.994a4.088,4.088,0,0,1,6.926-4.344c15.169,24.178,46.588,30.916,68.451,24.98,16.533-4.492,26.263-15.287,26.7-29.62.376-12.55-4.335-21.552-14-26.754-7.667-4.125-18.208-5.649-29.688-4.291-10.776,1.274-21.114,4.933-28.37,10.042a4.087,4.087,0,0,1-4.708-6.682c8.33-5.868,20.038-10.051,32.119-11.48,13.13-1.552,25.39.3,34.519,5.211,8.678,4.671,18.9,14.392,18.3,34.2-.537,17.918-12.769,31.847-32.72,37.265A69.155,69.155,0,0,1,450.535,273.823Z" transform="translate(-386.483 -194.021)" fill="#68b9ce"/>
      <path id="パス_185" data-name="パス 185" d="M450.726,266.264a60.237,60.237,0,0,1-8.027-.534c-11.146-1.493-20.871-6.019-28.121-13.09-8.157-7.95-12.849-18.955-13.571-31.819a4.088,4.088,0,0,1,8.163-.457c.614,10.943,4.353,19.831,11.116,26.424,5.982,5.834,14.108,9.582,23.5,10.841a53.351,53.351,0,0,0,30.117-4.89c6.67-3.32,15.407-9.625,19.152-20.834a4.089,4.089,0,1,1,7.756,2.592c-3.616,10.819-11.877,19.9-23.268,25.56A60.505,60.505,0,0,1,450.726,266.264Z" transform="translate(-364.536 -147.646)" fill="#68b9ce"/>
      <path id="パス_186" data-name="パス 186" d="M417.211,222.073a5.038,5.038,0,1,0,5.038,5.038,5.037,5.037,0,0,0-5.038-5.038Z" transform="translate(-341.241 -136.036)" fill="#68b9ce"/>
      <path id="パス_187" data-name="パス 187" d="M424.712,222.073a5.038,5.038,0,1,0,5.038,5.038,5.038,5.038,0,0,0-5.038-5.038Z" transform="translate(-325.601 -136.036)" fill="#68b9ce"/>
    </g>
  </g>
</svg>
