<svg xmlns="http://www.w3.org/2000/svg" width="56.393" height="53.732" viewBox="0 0 56.393 53.732">
  <g id="グループ_82" data-name="グループ 82" transform="translate(-1035.114 -4841.268)">
    <path id="パス_46" data-name="パス 46" d="M343.9,239.055c0-12.617-12.648-22.882-28.2-22.882s-28.2,10.264-28.2,22.882c0,11.311,10.031,20.784,23.581,22.575.918.2,2.168.605,2.485,1.391a5.8,5.8,0,0,1,.091,2.549s-.331,1.99-.4,2.414c-.123.713-.567,2.788,2.443,1.52s16.238-9.562,22.154-16.371h0c4.086-4.481,6.044-9.029,6.044-14.078" transform="translate(747.608 4625.095)" fill="#fff"/>
    <g id="グループ_26" data-name="グループ 26" transform="translate(1044.364 4858.052)">
      <path id="パス_47" data-name="パス 47" d="M320.931,242.181h-1.978a.549.549,0,0,0-.549.549v12.286a.549.549,0,0,0,.549.548h1.978a.549.549,0,0,0,.549-.548V242.73a.549.549,0,0,0-.549-.549" transform="translate(-307.714 -242.181)" fill="#68b9ce"/>
      <path id="パス_48" data-name="パス 48" d="M337.292,242.181h-1.978a.549.549,0,0,0-.549.549v7.3l-5.63-7.6c-.013-.019-.028-.037-.043-.055l0,0c-.01-.012-.022-.023-.033-.034l-.01-.009a.265.265,0,0,0-.029-.025l-.014-.012-.028-.019-.017-.01-.029-.017-.017-.008-.032-.013-.018-.006-.032-.011-.019,0-.032-.007-.023,0-.029,0H326.7a.55.55,0,0,0-.549.549v12.286a.549.549,0,0,0,.549.548h1.978a.549.549,0,0,0,.549-.548v-7.3l5.637,7.613a.553.553,0,0,0,.139.135l.006,0,.034.021.016.008.026.013.027.011.016.006.037.012.008,0a.524.524,0,0,0,.14.019h1.978a.549.549,0,0,0,.549-.548V242.73a.549.549,0,0,0-.549-.549" transform="translate(-310.461 -242.181)" fill="#68b9ce"/>
      <path id="パス_49" data-name="パス 49" d="M310.289,252.487h-5.374V242.73a.549.549,0,0,0-.549-.549h-1.978a.549.549,0,0,0-.549.549v12.285h0a.546.546,0,0,0,.154.379l.008.008.008.007a.545.545,0,0,0,.379.154h7.9a.549.549,0,0,0,.549-.549v-1.978a.549.549,0,0,0-.549-.549" transform="translate(-301.839 -242.181)" fill="#68b9ce"/>
      <path id="パス_50" data-name="パス 50" d="M355.694,245.257a.548.548,0,0,0,.548-.549v-1.977a.549.549,0,0,0-.548-.55h-7.9a.548.548,0,0,0-.381.155l-.006.006-.009.01a.546.546,0,0,0-.152.379h0v12.284h0a.546.546,0,0,0,.154.379l.008.008.008.007a.546.546,0,0,0,.379.154h7.9a.549.549,0,0,0,.548-.549v-1.978a.549.549,0,0,0-.548-.549H350.32v-2.077h5.374a.549.549,0,0,0,.548-.549v-1.978a.549.549,0,0,0-.548-.549H350.32v-2.077Z" transform="translate(-317.941 -242.181)" fill="#68b9ce"/>
    </g>
  </g>
</svg>
