<svg xmlns="http://www.w3.org/2000/svg" width="46" height="46" viewBox="0 0 46 46">
  <g id="グループ_49" data-name="グループ 49" transform="translate(-0.305 -0.292)">
    <rect id="長方形_3004" data-name="長方形 3004" width="46" height="46" transform="translate(0.305 0.292)" fill="none"/>
    <path id="パス_45" data-name="パス 45" d="M62.273,1.583c-2.567,1.665-3.072,6.87-2.1,11.112A38.315,38.315,0,0,0,65.237,24.6a39.792,39.792,0,0,0,8.806,9.482c3.478,2.615,8.436,4.277,11,2.612a13,13,0,0,0,3.315-3.555l-1.379-2.127-3.793-5.848c-.282-.435-2.049-.037-2.947.471a8.55,8.55,0,0,0-2.327,2.528c-.83.48-1.526,0-2.98-.667-1.786-.822-3.795-3.375-5.393-5.688-1.46-2.4-2.973-5.278-2.994-7.244-.018-1.6-.171-2.43.606-2.993a8.55,8.55,0,0,0,3.257-1.093c.831-.612,1.914-2.064,1.632-2.5L68.251,2.132,66.871.006A13,13,0,0,0,62.273,1.583Z" transform="translate(-50.928 4.565)" fill="#fff"/>
  </g>
</svg>
