<svg xmlns="http://www.w3.org/2000/svg" width="21" height="21" viewBox="0 0 21 21">
  <g id="グループ_49" data-name="グループ 49" transform="translate(0 0.061)">
    <rect id="長方形_3004" data-name="長方形 3004" width="21" height="21" transform="translate(0 -0.061)" fill="none"/>
    <path id="パス_45" data-name="パス 45" d="M60.865.712c-1.155.749-1.382,3.092-.946,5a17.244,17.244,0,0,0,2.28,5.359,17.909,17.909,0,0,0,3.963,4.267c1.565,1.177,3.8,1.925,4.952,1.176a5.851,5.851,0,0,0,1.492-1.6l-.621-.957-1.707-2.632c-.127-.2-.922-.017-1.326.212A3.848,3.848,0,0,0,67.9,12.676c-.374.216-.687,0-1.341-.3a7.965,7.965,0,0,1-2.427-2.56,7.965,7.965,0,0,1-1.348-3.26c-.008-.72-.077-1.094.273-1.347a3.848,3.848,0,0,0,1.466-.492c.374-.276.861-.929.735-1.125L63.555.959,62.934,0A5.852,5.852,0,0,0,60.865.712Z" transform="translate(-55.896 2.205)" fill="#68b9ce"/>
  </g>
</svg>
