<svg xmlns="http://www.w3.org/2000/svg" width="150" height="150" viewBox="0 0 150 150">
  <g id="_injury" data-name=" injury" transform="translate(8458 -1529)">
    <circle id="楕円形_5" data-name="楕円形 5" cx="75" cy="75" r="75" transform="translate(-8458 1529)" fill="#f7f7f7"/>
    <g id="bone" transform="translate(-8424.126 1549.779)">
      <g id="グループ_184" data-name="グループ 184" transform="translate(39.064 15.989)">
        <g id="グループ_183" data-name="グループ 183" transform="translate(0 0)">
          <path id="パス_158" data-name="パス 158" d="M250.616,26.6a10.094,10.094,0,0,0-2.967-.414,10.093,10.093,0,1,0-19.772,2.76,6.6,6.6,0,0,1-1.739,6.517l-8.971,8.971a1.442,1.442,0,0,0-.422,1.019v6.118a1.442,1.442,0,0,0,.48,1.074,1.457,1.457,0,0,0,1.12.359l7.576-.842v4.506A1.442,1.442,0,0,0,226.81,58a1.423,1.423,0,0,0,.552.11,1.442,1.442,0,0,0,1.019-.422l9.991-9.991a6.612,6.612,0,0,1,6.517-1.74A10.093,10.093,0,0,0,250.616,26.6Zm3.233,13.549a7.241,7.241,0,0,1-8.144,3.048,9.482,9.482,0,0,0-9.372,2.461h0L228.8,53.183V50.547a1.442,1.442,0,0,0-1.442-1.442,1.483,1.483,0,0,0-.16.009l-7.574.842v-3.91l8.549-8.549a9.482,9.482,0,0,0,2.466-9.372,7.245,7.245,0,0,1,3.05-8.142,7.163,7.163,0,0,1,7.7-.019,7.251,7.251,0,0,1,3.228,7.554,1.442,1.442,0,0,0,1.7,1.7,7.253,7.253,0,0,1,7.548,3.227A7.166,7.166,0,0,1,253.849,40.144Z" transform="translate(-216.744 -15.989)" fill="#68b9ce"/>
        </g>
      </g>
      <g id="グループ_186" data-name="グループ 186" transform="translate(2.886 51.145)">
        <g id="グループ_185" data-name="グループ 185">
          <path id="パス_159" data-name="パス 159" d="M56.631,216.509a1.454,1.454,0,0,0-1.12-.359l-7.576.842v-4.506a1.442,1.442,0,0,0-2.461-1.019l-9.991,9.991a6.607,6.607,0,0,1-6.517,1.74,10.093,10.093,0,1,0-2.875,19.772h.115a10.095,10.095,0,1,0,19.772-2.76,6.6,6.6,0,0,1,1.739-6.517l8.971-8.973a1.442,1.442,0,0,0,.422-1.019v-6.118A1.441,1.441,0,0,0,56.631,216.509Zm-2.4,6.595-8.549,8.549a9.482,9.482,0,0,0-2.466,9.372,7.245,7.245,0,0,1-3.05,8.142,7.163,7.163,0,0,1-7.7.019,7.251,7.251,0,0,1-3.228-7.554,1.442,1.442,0,0,0-1.414-1.73,1.477,1.477,0,0,0-.288.029,7.247,7.247,0,0,1-7.545-3.218,7.169,7.169,0,0,1,.019-7.7,7.247,7.247,0,0,1,8.144-3.048,9.49,9.49,0,0,0,9.372-2.467l7.529-7.529V218.6a1.442,1.442,0,0,0,1.6,1.433l7.574-.842Z" transform="translate(-16.01 -211.045)" fill="#68b9ce"/>
        </g>
      </g>
      <g id="グループ_188" data-name="グループ 188" transform="translate(21.346 34.443)">
        <g id="グループ_187" data-name="グループ 187">
          <path id="パス_160" data-name="パス 160" d="M129.952,129.7l-1.442-10.093a1.442,1.442,0,0,0-2.163-1.031l-7.209,4.326a1.442,1.442,0,0,0-.058,2.435l8.651,5.767a1.44,1.44,0,0,0,2.22-1.4Zm-7.382-5.5,3.393-2.036.679,4.758Z" transform="translate(-118.439 -118.377)" fill="#68b9ce"/>
        </g>
      </g>
      <g id="グループ_190" data-name="グループ 190" transform="translate(47.293 61.834)">
        <g id="グループ_189" data-name="グループ 189">
          <path id="パス_161" data-name="パス 161" d="M274.681,274.162a1.442,1.442,0,0,0-.541-.334h0l-9.826-3.4a1.442,1.442,0,0,0-1.8,1.921l3.942,9.4a1.442,1.442,0,0,0,2.36.453L274.7,276.2A1.442,1.442,0,0,0,274.681,274.162Zm-6.406,4.474-1.856-4.425,4.633,1.6Z" transform="translate(-262.401 -270.352)" fill="#68b9ce"/>
        </g>
      </g>
      <g id="グループ_192" data-name="グループ 192" transform="translate(55.944 57.508)">
        <g id="グループ_191" data-name="グループ 191">
          <rect id="長方形_3218" data-name="長方形 3218" width="2.884" height="2.884" fill="#68b9ce"/>
        </g>
      </g>
      <g id="グループ_194" data-name="グループ 194" transform="translate(22.781 48.857)">
        <g id="グループ_193" data-name="グループ 193" transform="translate(0 0)">
          <rect id="長方形_3219" data-name="長方形 3219" width="2.884" height="2.884" fill="#68b9ce"/>
        </g>
      </g>
      <g id="グループ_196" data-name="グループ 196" transform="translate(37.2 37.323)">
        <g id="グループ_195" data-name="グループ 195" transform="translate(0 0)">
          <rect id="長方形_3220" data-name="長方形 3220" width="2.884" height="2.884" fill="#68b9ce"/>
        </g>
      </g>
      <g id="グループ_198" data-name="グループ 198" transform="translate(41.525 71.927)">
        <g id="グループ_197" data-name="グループ 197">
          <rect id="長方形_3221" data-name="長方形 3221" width="2.884" height="2.884" fill="#68b9ce"/>
        </g>
      </g>
      <g id="グループ_200" data-name="グループ 200" transform="translate(0 57.508)">
        <g id="グループ_199" data-name="グループ 199">
          <path id="パス_162" data-name="パス 162" d="M0,252.7l2.307,1.73a12.992,12.992,0,0,1,15.572-4.112l1.153-2.641A15.875,15.875,0,0,0,0,252.7Z" transform="translate(0 -246.353)" fill="#68b9ce"/>
        </g>
      </g>
      <g id="グループ_202" data-name="グループ 202" transform="translate(64.018 43.667)">
        <g id="グループ_201" data-name="グループ 201">
          <path id="パス_163" data-name="パス 163" d="M371.926,169.555a12.992,12.992,0,0,1-15.572,4.112l-1.153,2.641a15.875,15.875,0,0,0,19.032-5.023Z" transform="translate(-355.2 -169.555)" fill="#68b9ce"/>
        </g>
      </g>
    </g>
  </g>
</svg>
