<svg xmlns="http://www.w3.org/2000/svg" width="150" height="150" viewBox="0 0 150 150">
  <g id="knee_pain" transform="translate(-1075 -1476)">
    <circle id="楕円形_5" data-name="楕円形 5" cx="75" cy="75" r="75" transform="translate(1075 1476)" fill="#f7f7f7"/>
    <g id="グループ_206" data-name="グループ 206">
      <g id="Page-1" transform="translate(1121.552 1507.636)">
        <g id="_027---Joint-Pain" data-name="027---Joint-Pain" transform="translate(8.001)">
          <g id="Icons" transform="translate(1.413 1.413)">
            <path id="Shape" d="M23,31.441c5.3,7.291,2.43,15.021,2.43,20.843a42.568,42.568,0,0,0,4.239,19.783c2.826,5.652,0,9.892-4.239,9.892s-5.652-1.413-8.478-1.413c-5.822,0-4.239,1.413-12.718,1.413A4.512,4.512,0,0,1,0,77.719c0-2.826,9.892-4.239,12.718-5.652,4-1.992,2.826-8.478-1.413-16.957A97.452,97.452,0,0,1,5.257,38.026a4.239,4.239,0,0,0-1.017-8.351,4.287,4.287,0,0,0-1.752.382,7.089,7.089,0,0,1,.339-3.208A9.786,9.786,0,0,1,7.065,21.2C11.3,8.478,24.022,0,24.022,0H55.11C49.458,18.37,36.74,21.2,29.675,24.022A10.881,10.881,0,0,0,23,31.441Z" fill="none"/>
            <path id="Shape-2" data-name="Shape" d="M24.189,24.022C31.254,21.2,43.972,18.37,49.624,0H45.385C39.733,18.37,27.015,21.2,19.95,24.022a10.881,10.881,0,0,0-6.67,7.419c5.3,7.291,2.43,15.021,2.43,20.843A42.568,42.568,0,0,0,19.95,72.067c2.457,4.915.64,8.761-2.662,9.678a15.91,15.91,0,0,0,2.662.213c4.239,0,7.065-4.239,4.239-9.892A42.568,42.568,0,0,1,19.95,52.284c0-5.822,2.869-13.551-2.43-20.843A10.881,10.881,0,0,1,24.189,24.022Z" transform="translate(5.486)" fill="none"/>
            <path id="Shape-3" data-name="Shape" d="M8.477,25.239a4.229,4.229,0,0,1-3.222,4.112,4.015,4.015,0,0,1-1.017.127,4.239,4.239,0,0,1-1.752-8.1A4.287,4.287,0,0,1,4.238,21,4.239,4.239,0,0,1,8.477,25.239Z" transform="translate(0.001 8.675)" fill="none"/>
          </g>
          <g id="Icons_copy" transform="translate(0)">
            <path id="Shape-4" data-name="Shape" d="M64.524,0H33.436a1.422,1.422,0,0,0-.784.237c-.528.352-12.859,8.683-17.346,21.435A11.782,11.782,0,0,0,10.9,27.815a8.743,8.743,0,0,0-.469,2.878,12.863,12.863,0,0,0,3.195,10.286,94.336,94.336,0,0,0,5.828,16.178c3.069,6.14,4.3,10.895,3.468,13.39a2.706,2.706,0,0,1-1.422,1.67,29.313,29.313,0,0,1-4.082,1.309C12.575,74.868,8,76.138,8,79.132a5.918,5.918,0,0,0,5.652,5.652,27.413,27.413,0,0,0,8.1-.848,15.323,15.323,0,0,1,4.622-.565,9.944,9.944,0,0,1,2.946.544,18.076,18.076,0,0,0,5.532.869A6.569,6.569,0,0,0,40.592,81.7c1.47-2.378,1.383-5.6-.24-8.85A40.769,40.769,0,0,1,36.262,53.7a41.574,41.574,0,0,1,.349-4.458c.545-4.853,1.205-10.851-2.64-16.607a9.425,9.425,0,0,1,5.641-5.884c.719-.283,1.5-.575,2.319-.879,7.433-2.747,18.668-6.9,23.943-24.041C66.007,1.4,64.972,0,64.524,0ZM40.952,23.218c-.848.312-1.649.609-2.39.906a12.133,12.133,0,0,0-6.6,5.993,25.639,25.639,0,0,0-3.329-2.986,1.413,1.413,0,1,0-1.7,2.261,20.772,20.772,0,0,1,4.342,4.294c3.674,5.052,3.062,10.457,2.525,15.239a44.867,44.867,0,0,0,4.013,25.187c1.176,2.35,1.309,4.573.365,6.1a3.8,3.8,0,0,1-3.332,1.747A15.194,15.194,0,0,1,30.1,81.2a12.66,12.66,0,0,0-3.733-.656,17.9,17.9,0,0,0-5.333.653,24.7,24.7,0,0,1-7.385.76,3.14,3.14,0,0,1-2.835-2.768c.406-1.015,5.276-2.367,7.355-2.943a29.467,29.467,0,0,0,4.588-1.5,5.5,5.5,0,0,0,2.84-3.3c1.1-3.307-.113-8.538-3.62-15.551a91.467,91.467,0,0,1-5.623-15.639c-2.017-3.17-4.08-6.052-2.706-10.584-.1,0-.2.024-.3.03a6.359,6.359,0,0,1,.222-1,8.46,8.46,0,0,1,3.533-4.834,1.413,1.413,0,0,0,.707-.818C21.47,12.1,31.865,4.266,33.88,2.826H62.565C57.517,17.1,47.991,20.618,40.952,23.218Z" transform="translate(-8.001)" fill="#68b9ce"/>
            <path id="Shape-5" data-name="Shape" d="M23.784,21.4a1.413,1.413,0,0,0,1.9-.633c.04-.081,4.13-8.156,10.768-12.138A1.413,1.413,0,0,0,34.993,6.2C27.666,10.6,23.332,19.136,23.144,19.493a1.413,1.413,0,0,0,.64,1.9Z" transform="translate(-1.807 2.484)" fill="#68b9ce"/>
            <path id="Shape-6" data-name="Shape" d="M24,53.826a1.413,1.413,0,1,0,2.826,0V52.413a1.413,1.413,0,1,0-2.826,0Z" transform="translate(-1.391 21.067)" fill="#68b9ce"/>
            <path id="Shape-7" data-name="Shape" d="M20.629,25.237a1.413,1.413,0,0,0-.391,1.96c2.551,3.825,2.589,10.455,2.589,10.52a1.413,1.413,0,0,0,2.826,0c0-.305-.034-7.546-3.064-12.089a1.413,1.413,0,0,0-1.96-.391Z" transform="translate(-3.043 10.327)" fill="#68b9ce"/>
          </g>
        </g>
      </g>
      <path id="パス_175" data-name="パス 175" d="M11.447,8.851l.962-.705a1.7,1.7,0,0,0-.217-2.877L2.486.193A1.7,1.7,0,0,0,.263,2.608L3.252,7.326l-1.22.923a1.7,1.7,0,0,0,.331,2.906l12.068,5.406a1.723,1.723,0,0,0,.706.153,1.7,1.7,0,0,0,1.2-2.9Zm-6.476.536.618-.467A1.71,1.71,0,0,0,6,6.654L4.484,4.262,9.555,6.914l-.608.445a1.7,1.7,0,0,0-.206,2.562l2.03,2.063Z" transform="matrix(0.875, -0.485, 0.485, 0.875, 1103.793, 1538.271)" fill="#68b9ce"/>
      <path id="パス_176" data-name="パス 176" d="M11.447,8.851l.962-.705a1.7,1.7,0,0,0-.217-2.877L2.486.193A1.7,1.7,0,0,0,.263,2.608L3.252,7.326l-1.22.923a1.7,1.7,0,0,0,.331,2.906l12.068,5.406a1.723,1.723,0,0,0,.706.153,1.7,1.7,0,0,0,1.2-2.9Zm-6.476.536.618-.467A1.71,1.71,0,0,0,6,6.654L4.484,4.262,9.555,6.914l-.608.445a1.7,1.7,0,0,0-.206,2.562l2.03,2.063Z" transform="translate(1115.919 1514.794) rotate(11)" fill="#68b9ce"/>
    </g>
  </g>
</svg>
