<svg xmlns="http://www.w3.org/2000/svg" xmlns:xlink="http://www.w3.org/1999/xlink" width="212" height="66" viewBox="0 0 212 66">
  <defs>
    <clipPath id="clip-path">
      <rect id="長方形_3028" data-name="長方形 3028" width="66" height="66" fill="#fff" stroke="#707070" stroke-width="1"/>
    </clipPath>
  </defs>
  <g id="グループ_47" data-name="グループ 47" transform="translate(-276 -61)">
    <g id="マスクグループ_3" data-name="マスクグループ 3" transform="translate(276 61)" clip-path="url(#clip-path)">
      <g id="グループ_1" data-name="グループ 1" transform="translate(1.646 1.512)">
        <path id="パス_1" data-name="パス 1" d="M421.035,257.895a31.855,31.855,0,1,1,31.856-31.854A31.891,31.891,0,0,1,421.035,257.895Zm0-59.95a28.1,28.1,0,1,0,28.1,28.1A28.126,28.126,0,0,0,421.035,197.945Z" transform="translate(-389.181 -194.185)" fill="#68b9ce"/>
        <path id="パス_2" data-name="パス 2" d="M410.221,255.886a1.87,1.87,0,0,1-.678-.128,31.86,31.86,0,0,1,11.492-61.573,1.88,1.88,0,0,1,0,3.76A28.1,28.1,0,0,0,410.9,252.252a1.88,1.88,0,0,1-.678,3.633Z" transform="translate(-389.181 -194.185)" fill="#68b9ce"/>
        <path id="パス_3" data-name="パス 3" d="M418.1,230.851a35.274,35.274,0,0,1-11.021-1.785,29.933,29.933,0,0,1-16.311-12.414,1.88,1.88,0,0,1,3.185-2c6.976,11.119,21.425,14.217,31.48,11.488,7.6-2.066,12.078-7.03,12.277-13.622.173-5.772-1.993-9.912-6.44-12.3-3.526-1.9-8.374-2.6-13.653-1.974a29.328,29.328,0,0,0-13.047,4.618,1.88,1.88,0,0,1-2.165-3.073,33.171,33.171,0,0,1,14.771-5.279c6.038-.714,11.677.138,15.875,2.4,3.991,2.148,8.691,6.619,8.416,15.727-.247,8.24-5.872,14.646-15.047,17.137A31.8,31.8,0,0,1,418.1,230.851Z" transform="translate(-388.639 -194.152)" fill="#68b9ce"/>
        <path id="パス_4" data-name="パス 4" d="M423.869,239.388a27.7,27.7,0,0,1-3.692-.246,22.57,22.57,0,0,1-12.932-6.02A21.657,21.657,0,0,1,401,218.49a1.88,1.88,0,0,1,3.754-.21,17.734,17.734,0,0,0,5.112,12.152,18.851,18.851,0,0,0,10.807,4.986,24.535,24.535,0,0,0,13.85-2.249,16.877,16.877,0,0,0,8.808-9.581,1.88,1.88,0,1,1,3.567,1.192,20.638,20.638,0,0,1-10.7,11.754A27.825,27.825,0,0,1,423.869,239.388Z" transform="translate(-384.231 -184.838)" fill="#68b9ce"/>
        <path id="パス_5" data-name="パス 5" d="M414.49,222.073a2.317,2.317,0,1,0,2.317,2.317,2.317,2.317,0,0,0-2.317-2.317Z" transform="translate(-379.552 -182.506)" fill="#68b9ce"/>
        <path id="パス_6" data-name="パス 6" d="M421.991,222.073a2.317,2.317,0,1,0,2.317,2.317,2.317,2.317,0,0,0-2.317-2.317Z" transform="translate(-376.411 -182.506)" fill="#68b9ce"/>
      </g>
    </g>
    <g id="グループ_43" data-name="グループ 43" transform="translate(357 96.136)">
      <path id="パス_7" data-name="パス 7" d="M383.531,245.108h7.411a6.187,6.187,0,0,1,4.723,1.742,5.5,5.5,0,0,1,1.388,3.93v.05a5.314,5.314,0,0,1-3.473,5.327l3.96,6.14h-4.167l-3.473-5.5h-2.8v5.5h-3.566Zm7.179,8.347a2.85,2.85,0,0,0,2.025-.662,2.312,2.312,0,0,0,.707-1.768v-.05a2.261,2.261,0,0,0-.741-1.842,3.146,3.146,0,0,0-2.061-.614H387.1v4.936Z" transform="translate(-383.531 -244.829)" fill="#68b9ce"/>
      <path id="パス_8" data-name="パス 8" d="M393.019,245.108h12.2v3.364h-8.683v3.486h7.64v3.366h-7.64v3.61h8.8V262.3H393.019Z" transform="translate(-373.275 -244.829)" fill="#68b9ce"/>
      <path id="パス_9" data-name="パス 9" d="M410.163,262.729a8.757,8.757,0,0,1-3.462-.663,7.978,7.978,0,0,1-2.685-1.836,8.383,8.383,0,0,1-1.748-2.795,9.71,9.71,0,0,1-.626-3.529v-.05a9.274,9.274,0,0,1,.637-3.443,8.912,8.912,0,0,1,1.77-2.818,8.317,8.317,0,0,1,2.687-1.912,8.2,8.2,0,0,1,3.4-.7,11.425,11.425,0,0,1,1.98.16,9.227,9.227,0,0,1,1.655.453,7.434,7.434,0,0,1,1.435.737,10.519,10.519,0,0,1,1.3,1l-2.246,2.869a8.953,8.953,0,0,0-.926-.737,6.026,6.026,0,0,0-.96-.539,5.526,5.526,0,0,0-1.077-.343,6.217,6.217,0,0,0-1.275-.122,3.953,3.953,0,0,0-1.816.429,4.92,4.92,0,0,0-1.482,1.154,5.341,5.341,0,0,0-1,1.7,5.91,5.91,0,0,0-.36,2.077v.048a6.319,6.319,0,0,0,.36,2.175,5.22,5.22,0,0,0,1.018,1.731,4.621,4.621,0,0,0,1.552,1.142,4.688,4.688,0,0,0,1.978.405,5.388,5.388,0,0,0,3.358-1.035v-2.47h-3.588v-3.26h7.037v7.451a11.815,11.815,0,0,1-2.973,1.924A9.313,9.313,0,0,1,410.163,262.729Z" transform="translate(-364.153 -244.984)" fill="#68b9ce"/>
      <path id="パス_10" data-name="パス 10" d="M418.4,245.056h3.289l6.947,17.306h-3.728l-1.482-3.854h-6.854l-1.48,3.854h-3.635Zm3.753,10.113L420,249.6l-2.153,5.571Z" transform="translate(-352.714 -244.894)" fill="#68b9ce"/>
      <path id="パス_11" data-name="パス 11" d="M422.251,245.108h3.566v13.775H433.9V262.3H422.251Z" transform="translate(-340.856 -244.829)" fill="#68b9ce"/>
      <path id="パス_12" data-name="パス 12" d="M438.94,262.729a8.416,8.416,0,0,1-3.449-.7,8.4,8.4,0,0,1-4.5-4.681,9.227,9.227,0,0,1-.637-3.443v-.05a9.1,9.1,0,0,1,.649-3.443,8.89,8.89,0,0,1,1.793-2.818,8.336,8.336,0,0,1,2.732-1.912,8.5,8.5,0,0,1,3.462-.7,8.417,8.417,0,0,1,3.449.7,8.43,8.43,0,0,1,4.5,4.681,9.286,9.286,0,0,1,.635,3.445v.048a9.094,9.094,0,0,1-.649,3.443,8.89,8.89,0,0,1-1.793,2.818,8.3,8.3,0,0,1-2.732,1.912A8.5,8.5,0,0,1,438.94,262.729Zm.047-3.481a4.667,4.667,0,0,0,1.969-.415,4.556,4.556,0,0,0,1.538-1.152,5.507,5.507,0,0,0,1-1.7,5.909,5.909,0,0,0,.358-2.07v-.05a6.015,6.015,0,0,0-.358-2.082,5.225,5.225,0,0,0-1.018-1.717,4.895,4.895,0,0,0-1.563-1.164,4.527,4.527,0,0,0-1.969-.429,4.6,4.6,0,0,0-1.98.417,4.516,4.516,0,0,0-1.527,1.152,5.424,5.424,0,0,0-1,1.7,5.924,5.924,0,0,0-.358,2.072v.048a6.03,6.03,0,0,0,.358,2.084,5.216,5.216,0,0,0,1.018,1.714,4.956,4.956,0,0,0,1.552,1.166A4.506,4.506,0,0,0,438.987,259.248Z" transform="translate(-331.578 -244.984)" fill="#68b9ce"/>
    </g>
    <text id="横浜の美容整体サロン" transform="translate(357 86.749)" fill="#aaa" font-size="12" font-family="YuGo-Bold, YuGothic" font-weight="700" letter-spacing="0.1em"><tspan x="0" y="0">横浜の美容整体サロン</tspan></text>
  </g>
</svg>
