<svg xmlns="http://www.w3.org/2000/svg" xmlns:xlink="http://www.w3.org/1999/xlink" width="66" height="66" viewBox="0 0 66 66">
  <defs>
    <clipPath id="clip-path">
      <rect id="長方形_3028" data-name="長方形 3028" width="66" height="66" fill="#fff" stroke="#707070" stroke-width="1"/>
    </clipPath>
  </defs>
  <g id="マスクグループ_3" data-name="マスクグループ 3" clip-path="url(#clip-path)">
    <g id="グループ_1" data-name="グループ 1" transform="translate(1.646 1.512)">
      <path id="パス_1" data-name="パス 1" d="M421.035,257.895a31.855,31.855,0,1,1,31.856-31.854A31.891,31.891,0,0,1,421.035,257.895Zm0-59.95a28.1,28.1,0,1,0,28.1,28.1A28.126,28.126,0,0,0,421.035,197.945Z" transform="translate(-389.181 -194.185)" fill="#68b9ce"/>
      <path id="パス_2" data-name="パス 2" d="M410.221,255.886a1.87,1.87,0,0,1-.678-.128,31.86,31.86,0,0,1,11.492-61.573,1.88,1.88,0,0,1,0,3.76A28.1,28.1,0,0,0,410.9,252.252a1.88,1.88,0,0,1-.678,3.633Z" transform="translate(-389.181 -194.185)" fill="#68b9ce"/>
      <path id="パス_3" data-name="パス 3" d="M418.1,230.851a35.274,35.274,0,0,1-11.021-1.785,29.933,29.933,0,0,1-16.311-12.414,1.88,1.88,0,0,1,3.185-2c6.976,11.119,21.425,14.217,31.48,11.488,7.6-2.066,12.078-7.03,12.277-13.622.173-5.772-1.993-9.912-6.44-12.3-3.526-1.9-8.374-2.6-13.653-1.974a29.328,29.328,0,0,0-13.047,4.618,1.88,1.88,0,0,1-2.165-3.073,33.171,33.171,0,0,1,14.771-5.279c6.038-.714,11.677.138,15.875,2.4,3.991,2.148,8.691,6.619,8.416,15.727-.247,8.24-5.872,14.646-15.047,17.137A31.8,31.8,0,0,1,418.1,230.851Z" transform="translate(-388.639 -194.152)" fill="#68b9ce"/>
      <path id="パス_4" data-name="パス 4" d="M423.869,239.388a27.7,27.7,0,0,1-3.692-.246,22.57,22.57,0,0,1-12.932-6.02A21.657,21.657,0,0,1,401,218.49a1.88,1.88,0,0,1,3.754-.21,17.734,17.734,0,0,0,5.112,12.152,18.851,18.851,0,0,0,10.807,4.986,24.535,24.535,0,0,0,13.85-2.249,16.877,16.877,0,0,0,8.808-9.581,1.88,1.88,0,1,1,3.567,1.192,20.638,20.638,0,0,1-10.7,11.754A27.825,27.825,0,0,1,423.869,239.388Z" transform="translate(-384.231 -184.838)" fill="#68b9ce"/>
      <path id="パス_5" data-name="パス 5" d="M414.49,222.073a2.317,2.317,0,1,0,2.317,2.317,2.317,2.317,0,0,0-2.317-2.317Z" transform="translate(-379.552 -182.506)" fill="#68b9ce"/>
      <path id="パス_6" data-name="パス 6" d="M421.991,222.073a2.317,2.317,0,1,0,2.317,2.317,2.317,2.317,0,0,0-2.317-2.317Z" transform="translate(-376.411 -182.506)" fill="#68b9ce"/>
    </g>
  </g>
</svg>
