<svg xmlns="http://www.w3.org/2000/svg" width="47" height="47" viewBox="0 0 47 47">
  <g id="logo_round" transform="translate(23.5 23.5)">
    <g id="logo_round-2" data-name="logo_round" transform="translate(-23.5 -23.5)">
      <circle id="楕円形_7" data-name="楕円形 7" cx="23.5" cy="23.5" r="23.5" fill="#00b900"/>
      <path id="パス_64" data-name="パス 64" d="M51.355,36.69c0-7.011-7.011-12.69-15.628-12.69S20.1,29.679,20.1,36.69c0,6.267,5.562,11.515,13.082,12.533.509.118,1.214.353,1.371.783a3.212,3.212,0,0,1,.039,1.41l-.235,1.332c-.078.392-.313,1.527,1.371.862s9.008-5.327,12.3-9.126h0a11.261,11.261,0,0,0,3.368-7.794" transform="translate(-12.227 -14.6)" fill="#fff"/>
      <path id="パス_65" data-name="パス 65" d="M49.71,47.739h-1.1a.313.313,0,0,0-.313.313v6.776a.313.313,0,0,0,.313.313h1.1a.313.313,0,0,0,.313-.313V48.013a.313.313,0,0,0-.313-.313" transform="translate(-29.382 -29.017)" fill="#00b900"/>
      <path id="パス_66" data-name="パス 66" d="M61.588,47.739h-1.1a.313.313,0,0,0-.313.313v4.034l-3.133-4.23H55.713a.313.313,0,0,0-.313.313v6.658a.313.313,0,0,0,.313.313h1.1a.313.313,0,0,0,.313-.313V50.794l3.133,4.23.078.078h1.253a.313.313,0,0,0,.313-.313V48.013a.313.313,0,0,0-.313-.313" transform="translate(-33.702 -29.017)" fill="#00b900"/>
      <path id="パス_67" data-name="パス 67" d="M37.861,53.458H34.884V48.013a.313.313,0,0,0-.313-.313H33.513a.313.313,0,0,0-.313.313v6.815h0a.313.313,0,0,0,.078.2h0l.2.078h4.387a.313.313,0,0,0,.313-.313V53.732a.313.313,0,0,0-.313-.313" transform="translate(-20.197 -29.017)" fill="#00b900"/>
      <path id="パス_68" data-name="パス 68" d="M79.361,49.423a.313.313,0,0,0,.313-.313v-1.1a.313.313,0,0,0-.313-.313H74.974l-.2.078h0a.313.313,0,0,0-.078.2h0v6.854h0a.313.313,0,0,0,.078.2h0l.2.078h4.387a.313.313,0,0,0,.313-.313V53.732a.313.313,0,0,0-.313-.313H76.384V52.283h2.977a.313.313,0,0,0,.313-.313v-1.1a.313.313,0,0,0-.313-.313H76.384V49.423Z" transform="translate(-45.443 -29.017)" fill="#00b900"/>
    </g>
  </g>
</svg>
