<svg xmlns="http://www.w3.org/2000/svg" width="150" height="150" viewBox="0 0 150 150">
  <g id="lose" transform="translate(-980 -1251)">
    <circle id="楕円形_5" data-name="楕円形 5" cx="75" cy="75" r="75" transform="translate(980 1251)" fill="#f7f7f7"/>
    <g id="anxiety" transform="translate(954.005 1279)">
      <g id="グループ_203" data-name="グループ 203" transform="translate(65.995 0)">
        <path id="パス_164" data-name="パス 164" d="M121.208,20.441a29.3,29.3,0,0,0-4.035-3.334V8.38a1.676,1.676,0,1,0-3.352,0v6.745a28.6,28.6,0,0,0-5.028-1.956V1.676a1.676,1.676,0,0,0-3.352,0V12.43a29.244,29.244,0,0,0-4.589-.363c-.146,0-.292,0-.439.005V8.38a1.676,1.676,0,1,0-3.352,0v3.934a28.761,28.761,0,0,0-5.028,1.119V1.676a1.676,1.676,0,0,0-3.352,0V14.74a29.005,29.005,0,0,0-8.186,5.7A28.184,28.184,0,0,0,72.021,40.6c0,1.74-1.549,4.938-4.144,8.553-2.414,3.364-2.068,5.731-1.353,7.125.754,1.469,2.62,3.192,7.194,3.53v7.333a9.046,9.046,0,0,0,9.076,8.995c4.375,0,6.783.162,7.809,1.049,1,.868,1.322,3.058,1.584,7.056a1.676,1.676,0,0,0,1.672,1.566h24.032a1.676,1.676,0,0,0,1.672-1.785c-.212-3.241-.3-5.629-.286-7.743a1.676,1.676,0,1,0-3.352-.022c-.012,1.785.046,3.745.184,6.2H95.42c-.292-3.647-.784-6.216-2.625-7.807-2.013-1.739-5.121-1.865-10-1.865a5.69,5.69,0,0,1-5.724-5.643V64.9H82.1a1.676,1.676,0,1,0,0-3.352H77.07V58.193a1.676,1.676,0,0,0-1.676-1.676c-3.119,0-5.32-.661-5.888-1.768-.4-.784,0-2.111,1.094-3.64,2.178-3.034,4.773-7.319,4.773-10.508A25.162,25.162,0,0,1,88.681,18.483v7.344a1.676,1.676,0,1,0,3.352,0V16.975A25.515,25.515,0,0,1,97.061,15.7V32.531a1.676,1.676,0,1,0,3.352,0V15.424c.146,0,.292-.006.439-.006a25.8,25.8,0,0,1,4.589.41v10a1.676,1.676,0,1,0,3.352,0V16.673a25.518,25.518,0,0,1,5.028,2.261V41.412a1.676,1.676,0,0,0,3.352,0V21.28a24.891,24.891,0,0,1,5.424,32.4,50.7,50.7,0,0,0-3.767,7.2,1.676,1.676,0,0,0,3.093,1.291,47.416,47.416,0,0,1,3.523-6.721,28.181,28.181,0,0,0-4.237-35.006Z" transform="translate(-65.995 0)" fill="#68b9ce"/>
        <path id="パス_166" data-name="パス 166" d="M369.352,400.239h0a1.676,1.676,0,1,0,1.677,1.676A1.675,1.675,0,0,0,369.351,400.239Z" transform="translate(-317.117 -333.162)" fill="#68b9ce"/>
        <path id="パス_167" data-name="パス 167" d="M144.584,215.174a1.676,1.676,0,1,0,0-3.352,6.7,6.7,0,0,1-2.287-.7,9.247,9.247,0,0,0-3.6-.973,1.676,1.676,0,1,0,0,3.352,6.7,6.7,0,0,1,2.287.7A9.247,9.247,0,0,0,144.584,215.174Z" transform="translate(-125.115 -174.927)" fill="#68b9ce"/>
        <path id="パス_168" data-name="パス 168" d="M160.843,289.581h.041a5.37,5.37,0,0,0,3.808-1.593,5.538,5.538,0,0,0,1.631-3.891,8.686,8.686,0,0,0-1.889-4.788c-.884-1.185-2.22-2.6-3.565-2.6s-2.681,1.412-3.565,2.6a8.687,8.687,0,0,0-1.889,4.788,5.538,5.538,0,0,0,1.631,3.891A5.363,5.363,0,0,0,160.843,289.581Zm.027-9.276c.821.769,2.1,2.584,2.1,3.793a2.163,2.163,0,0,1-.645,1.516,2.049,2.049,0,0,1-1.456.615h-.015a2.042,2.042,0,0,1-1.443-.615,2.164,2.164,0,0,1-.645-1.516C158.768,282.889,160.049,281.073,160.87,280.3Z" transform="translate(-140.43 -230.337)" fill="#68b9ce"/>
      </g>
    </g>
  </g>
</svg>
