<svg xmlns="http://www.w3.org/2000/svg" width="150" height="150" viewBox="0 0 150 150">
  <g id="shouler_pain" transform="translate(-1170 -1251)">
    <circle id="楕円形_5" data-name="楕円形 5" cx="75" cy="75" r="75" transform="translate(1170 1251)" fill="#f7f7f7"/>
    <g id="グループ_204" data-name="グループ 204" transform="translate(5)">
      <path id="shoulder" d="M69.53,10.432a77,77,0,0,0-27.3,7.623,2.314,2.314,0,0,1-1.488.064,16.969,16.969,0,0,0-17.649,4.958c-5.768,6.668-3.41,15.277-3.306,15.64a2.391,2.391,0,0,1-.144,1.664,33.334,33.334,0,0,0-.3,28.344,2.349,2.349,0,1,1-4.273,1.953,38.021,38.021,0,0,1-.019-31.563C11.361,22.2,25.942,9.574,41.155,13.367A81.208,81.208,0,0,1,69.124,5.751a2.349,2.349,0,0,1,.406,4.681Zm-15.485,56.5a16.567,16.567,0,0,1-2.106-1.458,18.068,18.068,0,0,1-5.144-7.048A41.25,41.25,0,0,0,44.7,37.808,2.349,2.349,0,1,0,40.3,39.431a35.991,35.991,0,0,1-1.732,29.192,2.349,2.349,0,1,0,4.174,2.158,41.075,41.075,0,0,0,2.422-5.7,21.264,21.264,0,0,0,6.518,5.912,2.349,2.349,0,1,0,2.368-4.058Z" transform="translate(1207.911 1291.039)" fill="#68b9ce"/>
      <path id="パス_170" data-name="パス 170" d="M17.559,16.264l1.117-.819a1.973,1.973,0,0,0-.252-3.339L7.158,6.215a1.973,1.973,0,0,0-2.58,2.8l3.469,5.476L6.631,15.566a1.973,1.973,0,0,0,.384,3.373l14.007,6.275a2,2,0,0,0,.819.178,1.977,1.977,0,0,0,1.393-3.361Zm-7.517.622.717-.543a1.984,1.984,0,0,0,.476-2.629L9.476,10.938l5.886,3.078-.705.517a1.973,1.973,0,0,0-.24,2.974L16.775,19.9Z" transform="translate(1195.728 1286.805)" fill="#68b9ce"/>
      <path id="パス_172" data-name="パス 172" d="M17.559,16.264l1.117-.819a1.973,1.973,0,0,0-.252-3.339L7.158,6.215a1.973,1.973,0,0,0-2.58,2.8l3.469,5.476L6.631,15.566a1.973,1.973,0,0,0,.384,3.373l14.007,6.275a2,2,0,0,0,.819.178,1.977,1.977,0,0,0,1.393-3.361Zm-7.517.622.717-.543a1.984,1.984,0,0,0,.476-2.629L9.476,10.938l5.886,3.078-.705.517a1.973,1.973,0,0,0-.24,2.974L16.775,19.9Z" transform="translate(1226.098 1268.451) rotate(40)" fill="#68b9ce"/>
    </g>
  </g>
</svg>
