<svg xmlns="http://www.w3.org/2000/svg" width="150" height="150" viewBox="0 0 150 150">
  <g id="waist_pain" transform="translate(-885 -1476)">
    <circle id="楕円形_5" data-name="楕円形 5" cx="75" cy="75" r="75" transform="translate(885 1476)" fill="#f7f7f7"/>
    <g id="グループ_205" data-name="グループ 205">
      <path id="sports-and-competition" d="M94.231,8.524V1.379a1.39,1.39,0,0,1,2.781,0V8.524A1.39,1.39,0,0,1,94.231,8.524ZM142.1,1.379V8.524a7.462,7.462,0,0,1-7.453,7.453c-11.407,0-10.5.875-13.889-5.01a1.391,1.391,0,0,0-2.409,0c-3.393,5.885-2.469,5.01-13.889,5.01-3.481,0-4.475-2.347-5.733-.815-.494.6-.426-.534,1,18.428-4,16.007-3.243,11.038-3.243,20.446a1.39,1.39,0,0,0,1.39,1.39h34.932a1.39,1.39,0,0,0,0-2.781H99.271c0-7.23-.643-3.17,3.215-18.6.079-.316.131.793-1.116-15.768,1.953.619,2.492.478,11.383.478,2.68,0,5.044-1.258,6.806-4.313,1.748,3.031,4.1,4.313,6.806,4.313h8.287A10.245,10.245,0,0,0,144.885,8.524V1.379a1.39,1.39,0,0,0-2.781,0ZM139.383,33.59l.73-9.7a1.39,1.39,0,0,0-2.773-.209l-.747,9.921c-.024.322-.181-.434,2.819,11.568H106.918a1.39,1.39,0,0,0,0,2.781h32.846V79.408a1.219,1.219,0,0,1-1.218,1.218H124.858a1.225,1.225,0,0,1-1.189-.955l-2.794-12.658a1.391,1.391,0,0,0-2.715,0L115.366,79.67a1.225,1.225,0,0,1-1.189.955H100.489a1.219,1.219,0,0,1-1.218-1.218v-15.9a1.39,1.39,0,0,0-2.781,0v15.9a4,4,0,0,0,4,4h13.688a4.024,4.024,0,0,0,3.9-3.137l1.436-6.506,1.436,6.506a4.024,4.024,0,0,0,3.9,3.137h13.688a4,4,0,0,0,4-4V47.039C142.7,46.518,142.827,47.367,139.383,33.59ZM127.6,26.23c-2.955,0-5.447.425-6.8-2.274a1.391,1.391,0,0,0-2.487,0c-1.343,2.686-3.842,2.274-6.7,2.274a1.39,1.39,0,0,0,0,2.781c3.018,0,5.579.363,7.948-2.062,2.352,2.407,4.847,2.062,8.04,2.062A1.39,1.39,0,0,0,127.6,26.23Zm-6.8,9.52a1.391,1.391,0,0,0-2.487,0,4.092,4.092,0,0,1-3.68,2.275,1.39,1.39,0,0,0-1.39,1.39c0,2.394,4.274,1.417,6.314-.671a6.856,6.856,0,0,0,4.923,2.062,1.39,1.39,0,0,0,0-2.781,4.093,4.093,0,0,1-3.68-2.275Zm-14.72-24.043H107.6a1.39,1.39,0,0,0,0-2.781h-1.522A1.39,1.39,0,0,0,106.081,11.708Zm25.432,0h1.522a1.39,1.39,0,0,0,0-2.781h-1.522A1.39,1.39,0,0,0,131.514,11.708Z" transform="translate(834.769 1509)" fill="#68b9ce" stroke="#68b9ce" stroke-width="0.5"/>
      <path id="パス_173" data-name="パス 173" d="M11.447,8.851l.962-.705a1.7,1.7,0,0,0-.217-2.877L2.486.193A1.7,1.7,0,0,0,.263,2.608L3.252,7.326l-1.22.923a1.7,1.7,0,0,0,.331,2.906l12.068,5.406a1.723,1.723,0,0,0,.706.153,1.7,1.7,0,0,0,1.2-2.9Zm-6.476.536.618-.467A1.71,1.71,0,0,0,6,6.654L4.484,4.262,9.555,6.914l-.608.445a1.7,1.7,0,0,0-.206,2.562l2.03,2.063Z" transform="matrix(-0.545, 0.839, -0.839, -0.545, 1004.544, 1542.701)" fill="#68b9ce"/>
      <path id="パス_174" data-name="パス 174" d="M11.447,8.851l.962-.705a1.7,1.7,0,0,0-.217-2.877L2.486.193A1.7,1.7,0,0,0,.263,2.608L3.252,7.326l-1.22.923a1.7,1.7,0,0,0,.331,2.906l12.068,5.406a1.723,1.723,0,0,0,.706.153,1.7,1.7,0,0,0,1.2-2.9Zm-6.476.536.618-.467A1.71,1.71,0,0,0,6,6.654L4.484,4.262,9.555,6.914l-.608.445a1.7,1.7,0,0,0-.206,2.562l2.03,2.063Z" transform="translate(1004.859 1569.123) rotate(163)" fill="#68b9ce"/>
    </g>
  </g>
</svg>
